<svg id="Layer_1" enable-background="new 0 0 48 48" viewBox="0 0 48 48" xmlns="http://www.w3.org/2000/svg"><path d="m24 13.5c-11.14 0-20 9.75-20.37 10.17-.17.19-.17.48 0 .67.37.41 9.23 10.16 20.37 10.16s20-9.75 20.37-10.17c.17-.19.17-.48 0-.67-.37-.41-9.23-10.16-20.37-10.16zm0 20c-9.55 0-17.64-7.78-19.31-9.5 1.67-1.72 9.75-9.5 19.31-9.5 9.55 0 17.64 7.78 19.31 9.5-1.67 1.72-9.75 9.5-19.31 9.5z"></path><path d="m24 16.5c-4.14 0-7.5 3.36-7.5 7.5s3.36 7.5 7.5 7.5 7.5-3.36 7.5-7.5-3.36-7.5-7.5-7.5zm0 14c-3.58 0-6.5-2.92-6.5-6.5s2.92-6.5 6.5-6.5 6.5 2.92 6.5 6.5-2.92 6.5-6.5 6.5z"></path><path d="m24 21.5c-1.38 0-2.5 1.12-2.5 2.5s1.12 2.5 2.5 2.5 2.5-1.12 2.5-2.5-1.12-2.5-2.5-2.5zm0 4c-.83 0-1.5-.67-1.5-1.5s.67-1.5 1.5-1.5 1.5.67 1.5 1.5-.67 1.5-1.5 1.5z" fill="#1E1D24"></path></svg>